<svg width="140" height="140" viewBox="0 0 140 140" fill="none" xmlns="http://www.w3.org/2000/svg">
<rect width="140" height="140" rx="30" fill="#1C2025"/>
<path d="M44.3015 67.1656C43.2884 68.1037 43.2275 69.6854 44.1656 70.6985L59.4523 87.2081C60.3903 88.2212 61.9721 88.2821 62.9852 87.344C63.9983 86.406 64.0591 84.8242 63.1211 83.8111L49.5329 69.1359L64.2081 55.5477C65.2212 54.6097 65.2821 53.0279 64.344 52.0148C63.406 51.0017 61.8242 50.9409 60.8111 51.8789L44.3015 67.1656ZM93.8685 73.3429C95.2481 73.396 96.4096 72.3206 96.4627 70.9409C96.5158 69.5612 95.4403 68.3997 94.0606 68.3466L93.9645 70.8448L93.8685 73.3429ZM46 69L45.9039 71.4982L93.8685 73.3429L93.9645 70.8448L94.0606 68.3466L46.0961 66.5018L46 69Z" fill="white"/>
</svg>
