<svg width="1340" height="300" viewBox="0 0 1340 300" fill="none" xmlns="http://www.w3.org/2000/svg">
<rect width="1340" height="300" rx="50" fill="#1C2025"/>
<rect x="1091" y="121" width="198" height="58" rx="29" stroke="#FFD000" stroke-width="2"/>
<path d="M1161.76 140.2H1166.36L1176.04 149.36L1166.36 158.56H1161.76L1171.44 149.36L1161.76 140.2ZM1183.32 140.2H1187.92L1197.6 149.36L1187.92 158.56H1183.32L1193 149.36L1183.32 140.2ZM1204.89 140.2H1209.49L1219.17 149.36L1209.49 158.56H1204.89L1214.57 149.36L1204.89 140.2Z" fill="#FFD000"/>
<path d="M319.82 149.58C322.06 149.98 323.96 151.16 325.52 153.12C327.08 155.08 327.86 157.3 327.86 159.78C327.86 161.9 327.3 163.82 326.18 165.54C325.1 167.22 323.52 168.56 321.44 169.56C319.36 170.52 316.94 171 314.18 171H297.5V129.3H313.4C316.24 129.3 318.68 129.78 320.72 130.74C322.76 131.7 324.3 133 325.34 134.64C326.38 136.24 326.9 138.04 326.9 140.04C326.9 142.44 326.26 144.44 324.98 146.04C323.7 147.64 321.98 148.82 319.82 149.58ZM304.34 146.82H312.8C315.04 146.82 316.78 146.32 318.02 145.32C319.3 144.28 319.94 142.8 319.94 140.88C319.94 139 319.3 137.54 318.02 136.5C316.78 135.42 315.04 134.88 312.8 134.88H304.34V146.82ZM313.58 165.42C315.9 165.42 317.72 164.86 319.04 163.74C320.36 162.62 321.02 161.06 321.02 159.06C321.02 157.02 320.32 155.4 318.92 154.2C317.52 153 315.66 152.4 313.34 152.4H304.34V165.42H313.58ZM333.013 150.06C333.013 145.98 333.953 142.32 335.833 139.08C337.753 135.84 340.333 133.32 343.573 131.52C346.853 129.68 350.433 128.76 354.313 128.76C358.753 128.76 362.693 129.86 366.133 132.06C369.613 134.22 372.133 137.3 373.693 141.3H365.473C364.393 139.1 362.893 137.46 360.973 136.38C359.053 135.3 356.833 134.76 354.313 134.76C351.553 134.76 349.093 135.38 346.933 136.62C344.773 137.86 343.073 139.64 341.833 141.96C340.633 144.28 340.033 146.98 340.033 150.06C340.033 153.14 340.633 155.84 341.833 158.16C343.073 160.48 344.773 162.28 346.933 163.56C349.093 164.8 351.553 165.42 354.313 165.42C356.833 165.42 359.053 164.88 360.973 163.8C362.893 162.72 364.393 161.08 365.473 158.88H373.693C372.133 162.88 369.613 165.96 366.133 168.12C362.693 170.28 358.753 171.36 354.313 171.36C350.393 171.36 346.813 170.46 343.573 168.66C340.333 166.82 337.753 164.28 335.833 161.04C333.953 157.8 333.013 154.14 333.013 150.06ZM418.945 171L409.345 154.32H404.125V171H397.285V129.3H411.685C414.885 129.3 417.585 129.86 419.785 130.98C422.025 132.1 423.685 133.6 424.765 135.48C425.885 137.36 426.445 139.46 426.445 141.78C426.445 144.5 425.645 146.98 424.045 149.22C422.485 151.42 420.065 152.92 416.785 153.72L427.105 171H418.945ZM404.125 148.86H411.685C414.245 148.86 416.165 148.22 417.445 146.94C418.765 145.66 419.425 143.94 419.425 141.78C419.425 139.62 418.785 137.94 417.505 136.74C416.225 135.5 414.285 134.88 411.685 134.88H404.125V148.86ZM457.515 149.58C459.755 149.98 461.655 151.16 463.215 153.12C464.775 155.08 465.555 157.3 465.555 159.78C465.555 161.9 464.995 163.82 463.875 165.54C462.795 167.22 461.215 168.56 459.135 169.56C457.055 170.52 454.635 171 451.875 171H435.195V129.3H451.095C453.935 129.3 456.375 129.78 458.415 130.74C460.455 131.7 461.995 133 463.035 134.64C464.075 136.24 464.595 138.04 464.595 140.04C464.595 142.44 463.955 144.44 462.675 146.04C461.395 147.64 459.675 148.82 457.515 149.58ZM442.035 146.82H450.495C452.735 146.82 454.475 146.32 455.715 145.32C456.995 144.28 457.635 142.8 457.635 140.88C457.635 139 456.995 137.54 455.715 136.5C454.475 135.42 452.735 134.88 450.495 134.88H442.035V146.82ZM451.275 165.42C453.595 165.42 455.415 164.86 456.735 163.74C458.055 162.62 458.715 161.06 458.715 159.06C458.715 157.02 458.015 155.4 456.615 154.2C455.215 153 453.355 152.4 451.035 152.4H442.035V165.42H451.275ZM492.128 150.18L505.088 171H497.408L487.988 155.88L479.168 171H471.548L484.508 150.18L471.488 129.3H479.168L488.648 144.54L497.528 129.3H505.148L492.128 150.18ZM525.904 150.06C525.904 145.98 526.844 142.32 528.724 139.08C530.644 135.84 533.224 133.32 536.464 131.52C539.744 129.68 543.324 128.76 547.204 128.76C551.644 128.76 555.584 129.86 559.024 132.06C562.504 134.22 565.024 137.3 566.584 141.3H558.364C557.284 139.1 555.784 137.46 553.864 136.38C551.944 135.3 549.724 134.76 547.204 134.76C544.444 134.76 541.984 135.38 539.824 136.62C537.664 137.86 535.964 139.64 534.724 141.96C533.524 144.28 532.924 146.98 532.924 150.06C532.924 153.14 533.524 155.84 534.724 158.16C535.964 160.48 537.664 162.28 539.824 163.56C541.984 164.8 544.444 165.42 547.204 165.42C549.724 165.42 551.944 164.88 553.864 163.8C555.784 162.72 557.284 161.08 558.364 158.88H566.584C565.024 162.88 562.504 165.96 559.024 168.12C555.584 170.28 551.644 171.36 547.204 171.36C543.284 171.36 539.704 170.46 536.464 168.66C533.224 166.82 530.644 164.28 528.724 161.04C526.844 157.8 525.904 154.14 525.904 150.06ZM588.93 171.54C585.81 171.54 582.99 170.84 580.47 169.44C577.95 168 575.97 166 574.53 163.44C573.09 160.84 572.37 157.84 572.37 154.44C572.37 151.08 573.11 148.1 574.59 145.5C576.07 142.9 578.09 140.9 580.65 139.5C583.21 138.1 586.07 137.4 589.23 137.4C592.39 137.4 595.25 138.1 597.81 139.5C600.37 140.9 602.39 142.9 603.87 145.5C605.35 148.1 606.09 151.08 606.09 154.44C606.09 157.8 605.33 160.78 603.81 163.38C602.29 165.98 600.21 168 597.57 169.44C594.97 170.84 592.09 171.54 588.93 171.54ZM588.93 165.6C590.69 165.6 592.33 165.18 593.85 164.34C595.41 163.5 596.67 162.24 597.63 160.56C598.59 158.88 599.07 156.84 599.07 154.44C599.07 152.04 598.61 150.02 597.69 148.38C596.77 146.7 595.55 145.44 594.03 144.6C592.51 143.76 590.87 143.34 589.11 143.34C587.35 143.34 585.71 143.76 584.19 144.6C582.71 145.44 581.53 146.7 580.65 148.38C579.77 150.02 579.33 152.04 579.33 154.44C579.33 158 580.23 160.76 582.03 162.72C583.87 164.64 586.17 165.6 588.93 165.6ZM642.792 137.94V171H635.952V167.1C634.872 168.46 633.452 169.54 631.692 170.34C629.972 171.1 628.132 171.48 626.172 171.48C623.572 171.48 621.232 170.94 619.152 169.86C617.112 168.78 615.492 167.18 614.292 165.06C613.132 162.94 612.552 160.38 612.552 157.38V137.94H619.332V156.36C619.332 159.32 620.072 161.6 621.552 163.2C623.032 164.76 625.052 165.54 627.612 165.54C630.172 165.54 632.192 164.76 633.672 163.2C635.192 161.6 635.952 159.32 635.952 156.36V137.94H642.792ZM668.496 137.4C671.096 137.4 673.416 137.94 675.456 139.02C677.536 140.1 679.156 141.7 680.316 143.82C681.476 145.94 682.056 148.5 682.056 151.5V171H675.276V152.52C675.276 149.56 674.536 147.3 673.056 145.74C671.576 144.14 669.556 143.34 666.996 143.34C664.436 143.34 662.396 144.14 660.876 145.74C659.396 147.3 658.656 149.56 658.656 152.52V171H651.816V137.94H658.656V141.72C659.776 140.36 661.196 139.3 662.916 138.54C664.676 137.78 666.536 137.4 668.496 137.4ZM698.761 143.52V161.82C698.761 163.06 699.041 163.96 699.601 164.52C700.201 165.04 701.201 165.3 702.601 165.3H706.801V171H701.401C698.321 171 695.961 170.28 694.321 168.84C692.681 167.4 691.861 165.06 691.861 161.82V143.52H687.961V137.94H691.861V129.72H698.761V137.94H706.801V143.52H698.761ZM743.405 153.66C743.405 154.9 743.325 156.02 743.165 157.02H717.905C718.105 159.66 719.085 161.78 720.845 163.38C722.605 164.98 724.765 165.78 727.325 165.78C731.005 165.78 733.605 164.24 735.125 161.16H742.505C741.505 164.2 739.685 166.7 737.045 168.66C734.445 170.58 731.205 171.54 727.325 171.54C724.165 171.54 721.325 170.84 718.805 169.44C716.325 168 714.365 166 712.925 163.44C711.525 160.84 710.825 157.84 710.825 154.44C710.825 151.04 711.505 148.06 712.865 145.5C714.265 142.9 716.205 140.9 718.685 139.5C721.205 138.1 724.085 137.4 727.325 137.4C730.445 137.4 733.225 138.08 735.665 139.44C738.105 140.8 740.005 142.72 741.365 145.2C742.725 147.64 743.405 150.46 743.405 153.66ZM736.265 151.5C736.225 148.98 735.325 146.96 733.565 145.44C731.805 143.92 729.625 143.16 727.025 143.16C724.665 143.16 722.645 143.92 720.965 145.44C719.285 146.92 718.285 148.94 717.965 151.5H736.265ZM756.977 142.74C757.977 141.06 759.297 139.76 760.937 138.84C762.617 137.88 764.597 137.4 766.877 137.4V144.48H765.137C762.457 144.48 760.417 145.16 759.017 146.52C757.657 147.88 756.977 150.24 756.977 153.6V171H750.137V137.94H756.977V142.74Z" fill="white"/>
<path d="M150 50L236.603 100V200L150 250L63.3975 200V100L150 50Z" fill="#1C2025"/>
<path d="M231.603 102.886V197.113L150 244.226L68.3975 197.113V102.886L150 55.7734L231.603 102.886Z" stroke="url(#paint0_linear_344_517)" stroke-width="10"/>
<path d="M202.096 120.05V180.149L150.048 210.199L98 180.149V120.05L150.048 90L202.096 120.05Z" fill="url(#paint1_linear_344_517)"/>
<g filter="url(#filter0_d_344_517)">
<path d="M129.596 155.936C129.596 153.296 127.704 151.712 124.712 151.712H118.64V159.984H124.844C127.836 159.984 129.596 158.532 129.596 155.936ZM128.848 143.132C128.848 140.668 127.176 139.26 124.272 139.26H118.64V146.96H124.272C127.176 146.96 128.848 145.64 128.848 143.132ZM135.844 156.684C135.844 161.568 132.104 165 125.724 165H112.48V134.288H125.152C131.576 134.288 135.14 137.632 135.14 142.208C135.14 145.948 132.896 148.28 129.904 149.248C133.38 149.864 135.844 153.076 135.844 156.684ZM140.842 151.888V146.696H159.498V151.888H140.842ZM182.686 143.836C182.686 141.108 181.146 139.392 177.714 139.392H172.566V148.412H177.714C181.146 148.412 182.686 146.608 182.686 143.836ZM166.406 134.288H177.934C185.326 134.288 189.022 138.556 189.022 143.704C189.022 147.444 186.954 151.228 182.026 152.548L189.374 165H182.246L175.47 153.032H172.566V165H166.406V134.288Z" fill="white"/>
</g>
<defs>
<filter id="filter0_d_344_517" x="108.48" y="134.287" width="84.8936" height="38.7129" filterUnits="userSpaceOnUse" color-interpolation-filters="sRGB">
<feFlood flood-opacity="0" result="BackgroundImageFix"/>
<feColorMatrix in="SourceAlpha" type="matrix" values="0 0 0 0 0 0 0 0 0 0 0 0 0 0 0 0 0 0 127 0" result="hardAlpha"/>
<feOffset dy="4"/>
<feGaussianBlur stdDeviation="2"/>
<feComposite in2="hardAlpha" operator="out"/>
<feColorMatrix type="matrix" values="0 0 0 0 0 0 0 0 0 0 0 0 0 0 0 0 0 0 0.25 0"/>
<feBlend mode="normal" in2="BackgroundImageFix" result="effect1_dropShadow_344_517"/>
<feBlend mode="normal" in="SourceGraphic" in2="effect1_dropShadow_344_517" result="shape"/>
</filter>
<linearGradient id="paint0_linear_344_517" x1="150" y1="50" x2="150" y2="250" gradientUnits="userSpaceOnUse">
<stop stop-color="#FB7807"/>
<stop offset="1" stop-color="#FC9C10"/>
</linearGradient>
<linearGradient id="paint1_linear_344_517" x1="150.048" y1="90" x2="150.048" y2="210.198" gradientUnits="userSpaceOnUse">
<stop stop-color="#FC9C10"/>
<stop offset="1" stop-color="#FB7807"/>
</linearGradient>
</defs>
</svg>
