<svg width="1340" height="300" viewBox="0 0 1340 300" fill="none" xmlns="http://www.w3.org/2000/svg">
<rect width="1340" height="300" rx="50" fill="#1C2025"/>
<rect x="1091" y="121" width="198" height="58" rx="29" stroke="#FFD000" stroke-width="2"/>
<path d="M1161.76 140.2H1166.36L1176.04 149.36L1166.36 158.56H1161.76L1171.44 149.36L1161.76 140.2ZM1183.32 140.2H1187.92L1197.6 149.36L1187.92 158.56H1183.32L1193 149.36L1183.32 140.2ZM1204.89 140.2H1209.49L1219.17 149.36L1209.49 158.56H1204.89L1214.57 149.36L1204.89 140.2Z" fill="#FFD000"/>
<path d="M316.52 171.42C312.64 171.42 309.06 170.52 305.78 168.72C302.54 166.88 299.96 164.34 298.04 161.1C296.16 157.82 295.22 154.14 295.22 150.06C295.22 145.98 296.16 142.32 298.04 139.08C299.96 135.84 302.54 133.32 305.78 131.52C309.06 129.68 312.64 128.76 316.52 128.76C320.44 128.76 324.02 129.68 327.26 131.52C330.54 133.32 333.12 135.84 335 139.08C336.88 142.32 337.82 145.98 337.82 150.06C337.82 154.14 336.88 157.82 335 161.1C333.12 164.34 330.54 166.88 327.26 168.72C324.02 170.52 320.44 171.42 316.52 171.42ZM316.52 165.48C319.28 165.48 321.74 164.86 323.9 163.62C326.06 162.34 327.74 160.54 328.94 158.22C330.18 155.86 330.8 153.14 330.8 150.06C330.8 146.98 330.18 144.28 328.94 141.96C327.74 139.64 326.06 137.86 323.9 136.62C321.74 135.38 319.28 134.76 316.52 134.76C313.76 134.76 311.3 135.38 309.14 136.62C306.98 137.86 305.28 139.64 304.04 141.96C302.84 144.28 302.24 146.98 302.24 150.06C302.24 153.14 302.84 155.86 304.04 158.22C305.28 160.54 306.98 162.34 309.14 163.62C311.3 164.86 313.76 165.48 316.52 165.48ZM366.871 149.58C369.111 149.98 371.011 151.16 372.571 153.12C374.131 155.08 374.911 157.3 374.911 159.78C374.911 161.9 374.351 163.82 373.231 165.54C372.151 167.22 370.571 168.56 368.491 169.56C366.411 170.52 363.991 171 361.231 171H344.551V129.3H360.451C363.291 129.3 365.731 129.78 367.771 130.74C369.811 131.7 371.351 133 372.391 134.64C373.431 136.24 373.951 138.04 373.951 140.04C373.951 142.44 373.311 144.44 372.031 146.04C370.751 147.64 369.031 148.82 366.871 149.58ZM351.391 146.82H359.851C362.091 146.82 363.831 146.32 365.071 145.32C366.351 144.28 366.991 142.8 366.991 140.88C366.991 139 366.351 137.54 365.071 136.5C363.831 135.42 362.091 134.88 359.851 134.88H351.391V146.82ZM360.631 165.42C362.951 165.42 364.771 164.86 366.091 163.74C367.411 162.62 368.071 161.06 368.071 159.06C368.071 157.02 367.371 155.4 365.971 154.2C364.571 153 362.711 152.4 360.391 152.4H351.391V165.42H360.631ZM380.064 150.06C380.064 145.98 381.004 142.32 382.884 139.08C384.804 135.84 387.384 133.32 390.624 131.52C393.904 129.68 397.484 128.76 401.364 128.76C405.804 128.76 409.744 129.86 413.184 132.06C416.664 134.22 419.184 137.3 420.744 141.3H412.524C411.444 139.1 409.944 137.46 408.024 136.38C406.104 135.3 403.884 134.76 401.364 134.76C398.604 134.76 396.144 135.38 393.984 136.62C391.824 137.86 390.124 139.64 388.884 141.96C387.684 144.28 387.084 146.98 387.084 150.06C387.084 153.14 387.684 155.84 388.884 158.16C390.124 160.48 391.824 162.28 393.984 163.56C396.144 164.8 398.604 165.42 401.364 165.42C403.884 165.42 406.104 164.88 408.024 163.8C409.944 162.72 411.444 161.08 412.524 158.88H420.744C419.184 162.88 416.664 165.96 413.184 168.12C409.744 170.28 405.804 171.36 401.364 171.36C397.444 171.36 393.864 170.46 390.624 168.66C387.384 166.82 384.804 164.28 382.884 161.04C381.004 157.8 380.064 154.14 380.064 150.06ZM465.996 171L456.396 154.32H451.176V171H444.336V129.3H458.736C461.936 129.3 464.636 129.86 466.836 130.98C469.076 132.1 470.736 133.6 471.816 135.48C472.936 137.36 473.496 139.46 473.496 141.78C473.496 144.5 472.696 146.98 471.096 149.22C469.536 151.42 467.116 152.92 463.836 153.72L474.156 171H465.996ZM451.176 148.86H458.736C461.296 148.86 463.216 148.22 464.496 146.94C465.816 145.66 466.476 143.94 466.476 141.78C466.476 139.62 465.836 137.94 464.556 136.74C463.276 135.5 461.336 134.88 458.736 134.88H451.176V148.86ZM504.566 149.58C506.806 149.98 508.706 151.16 510.266 153.12C511.826 155.08 512.606 157.3 512.606 159.78C512.606 161.9 512.046 163.82 510.926 165.54C509.846 167.22 508.266 168.56 506.186 169.56C504.106 170.52 501.686 171 498.926 171H482.246V129.3H498.146C500.986 129.3 503.426 129.78 505.466 130.74C507.506 131.7 509.046 133 510.086 134.64C511.126 136.24 511.646 138.04 511.646 140.04C511.646 142.44 511.006 144.44 509.726 146.04C508.446 147.64 506.726 148.82 504.566 149.58ZM489.086 146.82H497.546C499.786 146.82 501.526 146.32 502.766 145.32C504.046 144.28 504.686 142.8 504.686 140.88C504.686 139 504.046 137.54 502.766 136.5C501.526 135.42 499.786 134.88 497.546 134.88H489.086V146.82ZM498.326 165.42C500.646 165.42 502.466 164.86 503.786 163.74C505.106 162.62 505.766 161.06 505.766 159.06C505.766 157.02 505.066 155.4 503.666 154.2C502.266 153 500.406 152.4 498.086 152.4H489.086V165.42H498.326ZM539.179 150.18L552.139 171H544.459L535.039 155.88L526.219 171H518.599L531.559 150.18L518.539 129.3H526.219L535.699 144.54L544.579 129.3H552.199L539.179 150.18ZM572.954 150.06C572.954 145.98 573.894 142.32 575.774 139.08C577.694 135.84 580.274 133.32 583.514 131.52C586.794 129.68 590.374 128.76 594.254 128.76C598.694 128.76 602.634 129.86 606.074 132.06C609.554 134.22 612.074 137.3 613.634 141.3H605.414C604.334 139.1 602.834 137.46 600.914 136.38C598.994 135.3 596.774 134.76 594.254 134.76C591.494 134.76 589.034 135.38 586.874 136.62C584.714 137.86 583.014 139.64 581.774 141.96C580.574 144.28 579.974 146.98 579.974 150.06C579.974 153.14 580.574 155.84 581.774 158.16C583.014 160.48 584.714 162.28 586.874 163.56C589.034 164.8 591.494 165.42 594.254 165.42C596.774 165.42 598.994 164.88 600.914 163.8C602.834 162.72 604.334 161.08 605.414 158.88H613.634C612.074 162.88 609.554 165.96 606.074 168.12C602.634 170.28 598.694 171.36 594.254 171.36C590.334 171.36 586.754 170.46 583.514 168.66C580.274 166.82 577.694 164.28 575.774 161.04C573.894 157.8 572.954 154.14 572.954 150.06ZM635.981 171.54C632.861 171.54 630.041 170.84 627.521 169.44C625.001 168 623.021 166 621.581 163.44C620.141 160.84 619.421 157.84 619.421 154.44C619.421 151.08 620.161 148.1 621.641 145.5C623.121 142.9 625.141 140.9 627.701 139.5C630.261 138.1 633.121 137.4 636.281 137.4C639.441 137.4 642.301 138.1 644.861 139.5C647.421 140.9 649.441 142.9 650.921 145.5C652.401 148.1 653.141 151.08 653.141 154.44C653.141 157.8 652.381 160.78 650.861 163.38C649.341 165.98 647.261 168 644.621 169.44C642.021 170.84 639.141 171.54 635.981 171.54ZM635.981 165.6C637.741 165.6 639.381 165.18 640.901 164.34C642.461 163.5 643.721 162.24 644.681 160.56C645.641 158.88 646.121 156.84 646.121 154.44C646.121 152.04 645.661 150.02 644.741 148.38C643.821 146.7 642.601 145.44 641.081 144.6C639.561 143.76 637.921 143.34 636.161 143.34C634.401 143.34 632.761 143.76 631.241 144.6C629.761 145.44 628.581 146.7 627.701 148.38C626.821 150.02 626.381 152.04 626.381 154.44C626.381 158 627.281 160.76 629.081 162.72C630.921 164.64 633.221 165.6 635.981 165.6ZM689.842 137.94V171H683.002V167.1C681.922 168.46 680.502 169.54 678.742 170.34C677.022 171.1 675.182 171.48 673.222 171.48C670.622 171.48 668.282 170.94 666.202 169.86C664.162 168.78 662.542 167.18 661.342 165.06C660.182 162.94 659.602 160.38 659.602 157.38V137.94H666.382V156.36C666.382 159.32 667.122 161.6 668.602 163.2C670.082 164.76 672.102 165.54 674.662 165.54C677.222 165.54 679.242 164.76 680.722 163.2C682.242 161.6 683.002 159.32 683.002 156.36V137.94H689.842ZM715.547 137.4C718.147 137.4 720.467 137.94 722.507 139.02C724.587 140.1 726.207 141.7 727.367 143.82C728.527 145.94 729.107 148.5 729.107 151.5V171H722.327V152.52C722.327 149.56 721.587 147.3 720.107 145.74C718.627 144.14 716.607 143.34 714.047 143.34C711.487 143.34 709.447 144.14 707.927 145.74C706.447 147.3 705.707 149.56 705.707 152.52V171H698.867V137.94H705.707V141.72C706.827 140.36 708.247 139.3 709.967 138.54C711.727 137.78 713.587 137.4 715.547 137.4ZM745.812 143.52V161.82C745.812 163.06 746.092 163.96 746.652 164.52C747.252 165.04 748.252 165.3 749.652 165.3H753.852V171H748.452C745.372 171 743.012 170.28 741.372 168.84C739.732 167.4 738.912 165.06 738.912 161.82V143.52H735.012V137.94H738.912V129.72H745.812V137.94H753.852V143.52H745.812ZM790.456 153.66C790.456 154.9 790.376 156.02 790.216 157.02H764.956C765.156 159.66 766.136 161.78 767.896 163.38C769.656 164.98 771.816 165.78 774.376 165.78C778.056 165.78 780.656 164.24 782.176 161.16H789.556C788.556 164.2 786.736 166.7 784.096 168.66C781.496 170.58 778.256 171.54 774.376 171.54C771.216 171.54 768.376 170.84 765.856 169.44C763.376 168 761.416 166 759.976 163.44C758.576 160.84 757.876 157.84 757.876 154.44C757.876 151.04 758.556 148.06 759.916 145.5C761.316 142.9 763.256 140.9 765.736 139.5C768.256 138.1 771.136 137.4 774.376 137.4C777.496 137.4 780.276 138.08 782.716 139.44C785.156 140.8 787.056 142.72 788.416 145.2C789.776 147.64 790.456 150.46 790.456 153.66ZM783.316 151.5C783.276 148.98 782.376 146.96 780.616 145.44C778.856 143.92 776.676 143.16 774.076 143.16C771.716 143.16 769.696 143.92 768.016 145.44C766.336 146.92 765.336 148.94 765.016 151.5H783.316ZM804.028 142.74C805.028 141.06 806.348 139.76 807.988 138.84C809.668 137.88 811.648 137.4 813.928 137.4V144.48H812.188C809.508 144.48 807.468 145.16 806.068 146.52C804.708 147.88 804.028 150.24 804.028 153.6V171H797.188V137.94H804.028V142.74Z" fill="white"/>
<path d="M150 50L236.603 100V200L150 250L63.3975 200V100L150 50Z" fill="#1C2025"/>
<path d="M231.603 102.886V197.113L150 244.226L68.3975 197.113V102.886L150 55.7734L231.603 102.886Z" stroke="url(#paint0_linear_344_602)" stroke-width="10"/>
<path d="M202.096 120.05V180.149L150.048 210.199L98 180.149V120.05L150.048 90L202.096 120.05Z" fill="url(#paint1_linear_344_602)"/>
<g filter="url(#filter0_d_344_602)">
<path d="M139.308 149.556C139.308 158.796 132.312 165.308 123.6 165.308C114.932 165.308 107.848 158.796 107.848 149.556C107.848 140.36 114.932 133.848 123.6 133.848C132.356 133.848 139.308 140.36 139.308 149.556ZM114.184 149.556C114.184 155.804 118.012 159.808 123.6 159.808C129.144 159.808 132.972 155.804 132.972 149.556C132.972 143.308 129.144 139.392 123.6 139.392C118.012 139.392 114.184 143.308 114.184 149.556ZM143.978 151.888V146.696H162.634V151.888H143.978ZM185.823 143.836C185.823 141.108 184.283 139.392 180.851 139.392H175.703V148.412H180.851C184.283 148.412 185.823 146.608 185.823 143.836ZM169.543 134.288H181.071C188.463 134.288 192.159 138.556 192.159 143.704C192.159 147.444 190.091 151.228 185.163 152.548L192.511 165H185.383L178.607 153.032H175.703V165H169.543V134.288Z" fill="white"/>
</g>
<defs>
<filter id="filter0_d_344_602" x="103.848" y="133.848" width="92.6631" height="39.4609" filterUnits="userSpaceOnUse" color-interpolation-filters="sRGB">
<feFlood flood-opacity="0" result="BackgroundImageFix"/>
<feColorMatrix in="SourceAlpha" type="matrix" values="0 0 0 0 0 0 0 0 0 0 0 0 0 0 0 0 0 0 127 0" result="hardAlpha"/>
<feOffset dy="4"/>
<feGaussianBlur stdDeviation="2"/>
<feComposite in2="hardAlpha" operator="out"/>
<feColorMatrix type="matrix" values="0 0 0 0 0 0 0 0 0 0 0 0 0 0 0 0 0 0 0.25 0"/>
<feBlend mode="normal" in2="BackgroundImageFix" result="effect1_dropShadow_344_602"/>
<feBlend mode="normal" in="SourceGraphic" in2="effect1_dropShadow_344_602" result="shape"/>
</filter>
<linearGradient id="paint0_linear_344_602" x1="150" y1="50" x2="150" y2="250" gradientUnits="userSpaceOnUse">
<stop stop-color="#FB7807"/>
<stop offset="1" stop-color="#FC9C10"/>
</linearGradient>
<linearGradient id="paint1_linear_344_602" x1="150.048" y1="90" x2="150.048" y2="210.198" gradientUnits="userSpaceOnUse">
<stop stop-color="#FC9C10"/>
<stop offset="1" stop-color="#FB7807"/>
</linearGradient>
</defs>
</svg>
