<svg width="650" height="540" viewBox="0 0 650 540" fill="none" xmlns="http://www.w3.org/2000/svg">
<rect y="110" width="650" height="430" rx="50" fill="#1C2025"/>
<rect x="226" y="434" width="198" height="58" rx="29" stroke="#FFD000" stroke-width="2"/>
<path d="M296.76 453.2H301.36L311.04 462.36L301.36 471.56H296.76L306.44 462.36L296.76 453.2ZM318.323 453.2H322.923L332.603 462.36L322.923 471.56H318.323L328.003 462.36L318.323 453.2ZM339.885 453.2H344.485L354.165 462.36L344.485 471.56H339.885L349.565 462.36L339.885 453.2Z" fill="#FFD000"/>
<path d="M325 0L420.263 55V165L325 220L229.737 165V55L325 0Z" fill="#1C2025"/>
<path d="M415.263 57.8857V162.113L325 214.226L234.737 162.113V57.8857L325 5.77344L415.263 57.8857Z" stroke="url(#paint0_linear_338_139)" stroke-width="10"/>
<path d="M377.921 79.4463V140.558L324.997 171.113L272.073 140.558V79.4463L324.997 48.8906L377.921 79.4463ZM303 88V132H347V88H303Z" fill="url(#paint1_linear_338_139)"/>
<path d="M129.153 264.12C142.533 264.12 151.233 272.4 151.233 285.12C151.233 297.78 142.533 306 129.153 306H114.513V264.12H129.153ZM122.913 298.86H128.853C137.673 298.86 142.653 293.82 142.653 285.12C142.653 276.42 137.673 271.2 128.853 271.2H122.913V298.86ZM155.361 289.26C155.361 278.88 162.081 272.22 170.541 272.22C175.881 272.22 179.541 274.74 181.521 277.5V272.76H189.981V306H181.521V301.14C179.541 304.02 175.761 306.54 170.481 306.54C162.081 306.54 155.361 299.64 155.361 289.26ZM181.521 289.38C181.521 283.08 177.321 279.6 172.701 279.6C168.201 279.6 163.941 282.96 163.941 289.26C163.941 295.56 168.201 299.16 172.701 299.16C177.321 299.16 181.521 295.68 181.521 289.38ZM198.185 306V272.76H206.585V306H198.185ZM202.445 268.8C199.445 268.8 197.285 266.64 197.285 263.88C197.285 261.12 199.445 258.96 202.445 258.96C205.385 258.96 207.605 261.12 207.605 263.88C207.605 266.64 205.385 268.8 202.445 268.8ZM214.884 306V261.6H223.284V306H214.884ZM245.743 295.98L254.443 272.76H263.383L242.803 321.72H233.863L241.063 305.16L227.743 272.76H237.163L245.743 295.98ZM282.208 306V264.12H308.068V270.9H290.608V281.64H303.988V288.3H290.608V306H282.208ZM322.425 289.44V306H314.025V272.76H322.425V277.92C324.525 274.5 328.005 272.28 332.625 272.28V281.1H330.405C325.425 281.1 322.425 283.02 322.425 289.44ZM352.563 279.12C348.543 279.12 345.363 281.7 344.703 286.26H360.483C360.363 281.88 356.883 279.12 352.563 279.12ZM368.343 295.56C366.543 301.68 361.023 306.54 352.803 306.54C343.143 306.54 336.123 299.82 336.123 289.38C336.123 278.88 342.963 272.22 352.803 272.22C362.403 272.22 369.183 278.76 369.183 288.66C369.183 289.74 369.123 290.82 368.943 291.9H344.643C345.063 296.82 348.423 299.58 352.623 299.58C356.223 299.58 358.203 297.78 359.283 295.56H368.343ZM389.594 279.12C385.574 279.12 382.394 281.7 381.734 286.26H397.514C397.394 281.88 393.914 279.12 389.594 279.12ZM405.374 295.56C403.574 301.68 398.054 306.54 389.834 306.54C380.174 306.54 373.154 299.82 373.154 289.38C373.154 278.88 379.994 272.22 389.834 272.22C399.434 272.22 406.214 278.76 406.214 288.66C406.214 289.74 406.154 290.82 405.974 291.9H381.674C382.094 296.82 385.454 299.58 389.654 299.58C393.254 299.58 395.234 297.78 396.314 295.56H405.374ZM448.842 277.14C448.842 273.42 446.742 271.08 442.062 271.08H435.042V283.38H442.062C446.742 283.38 448.842 280.92 448.842 277.14ZM426.642 264.12H442.362C452.442 264.12 457.482 269.94 457.482 276.96C457.482 282.06 454.662 287.22 447.942 289.02L457.962 306H448.242L439.002 289.68H435.042V306H426.642V264.12ZM488.419 293.64C488.419 290.04 485.839 287.88 481.759 287.88H473.479V299.16H481.939C486.019 299.16 488.419 297.18 488.419 293.64ZM487.399 276.18C487.399 272.82 485.119 270.9 481.159 270.9H473.479V281.4H481.159C485.119 281.4 487.399 279.6 487.399 276.18ZM496.939 294.66C496.939 301.32 491.839 306 483.139 306H465.079V264.12H482.359C491.119 264.12 495.979 268.68 495.979 274.92C495.979 280.02 492.919 283.2 488.839 284.52C493.579 285.36 496.939 289.74 496.939 294.66ZM528.714 306L519.654 291.9L511.434 306H501.954L515.154 284.88L501.774 264.12H511.434L520.494 278.16L528.654 264.12H538.134L524.994 285.18L538.374 306H528.714Z" fill="white"/>
<path d="M201.298 371.248C201.298 367.984 202.034 365.056 203.506 362.464C204.978 359.84 206.978 357.792 209.506 356.32C212.066 354.848 214.898 354.112 218.002 354.112C221.65 354.112 224.834 354.992 227.554 356.752C230.274 358.512 232.258 361.008 233.506 364.24H228.274C227.346 362.224 226.002 360.672 224.242 359.584C222.514 358.496 220.434 357.952 218.002 357.952C215.666 357.952 213.57 358.496 211.714 359.584C209.858 360.672 208.402 362.224 207.346 364.24C206.29 366.224 205.762 368.56 205.762 371.248C205.762 373.904 206.29 376.24 207.346 378.256C208.402 380.24 209.858 381.776 211.714 382.864C213.57 383.952 215.666 384.496 218.002 384.496C220.434 384.496 222.514 383.968 224.242 382.912C226.002 381.824 227.346 380.272 228.274 378.256H233.506C232.258 381.456 230.274 383.936 227.554 385.696C224.834 387.424 221.65 388.288 218.002 388.288C214.898 388.288 212.066 387.568 209.506 386.128C206.978 384.656 204.978 382.624 203.506 380.032C202.034 377.44 201.298 374.512 201.298 371.248ZM238.377 374.752C238.377 372.064 238.921 369.712 240.009 367.696C241.097 365.648 242.585 364.064 244.473 362.944C246.393 361.824 248.521 361.264 250.857 361.264C253.161 361.264 255.161 361.76 256.857 362.752C258.553 363.744 259.817 364.992 260.649 366.496V361.696H265.065V388H260.649V383.104C259.785 384.64 258.489 385.92 256.761 386.944C255.065 387.936 253.081 388.432 250.809 388.432C248.473 388.432 246.361 387.856 244.473 386.704C242.585 385.552 241.097 383.936 240.009 381.856C238.921 379.776 238.377 377.408 238.377 374.752ZM260.649 374.8C260.649 372.816 260.249 371.088 259.449 369.616C258.649 368.144 257.561 367.024 256.185 366.256C254.841 365.456 253.353 365.056 251.721 365.056C250.089 365.056 248.601 365.44 247.257 366.208C245.913 366.976 244.841 368.096 244.041 369.568C243.241 371.04 242.841 372.768 242.841 374.752C242.841 376.768 243.241 378.528 244.041 380.032C244.841 381.504 245.913 382.64 247.257 383.44C248.601 384.208 250.089 384.592 251.721 384.592C253.353 384.592 254.841 384.208 256.185 383.44C257.561 382.64 258.649 381.504 259.449 380.032C260.249 378.528 260.649 376.784 260.649 374.8ZM276.814 352.48V388H272.446V352.48H276.814ZM282.627 374.8C282.627 372.08 283.171 369.712 284.259 367.696C285.347 365.648 286.851 364.064 288.771 362.944C290.723 361.824 292.947 361.264 295.443 361.264C298.675 361.264 301.331 362.048 303.411 363.616C305.523 365.184 306.915 367.36 307.587 370.144H302.883C302.435 368.544 301.555 367.28 300.243 366.352C298.963 365.424 297.363 364.96 295.443 364.96C292.947 364.96 290.931 365.824 289.395 367.552C287.859 369.248 287.091 371.664 287.091 374.8C287.091 377.968 287.859 380.416 289.395 382.144C290.931 383.872 292.947 384.736 295.443 384.736C297.363 384.736 298.963 384.288 300.243 383.392C301.523 382.496 302.403 381.216 302.883 379.552H307.587C306.883 382.24 305.475 384.4 303.363 386.032C301.251 387.632 298.611 388.432 295.443 388.432C292.947 388.432 290.723 387.872 288.771 386.752C286.851 385.632 285.347 384.048 284.259 382C283.171 379.952 282.627 377.552 282.627 374.8ZM336.743 361.696V388H332.375V384.112C331.543 385.456 330.375 386.512 328.871 387.28C327.399 388.016 325.767 388.384 323.975 388.384C321.927 388.384 320.087 387.968 318.455 387.136C316.823 386.272 315.527 384.992 314.567 383.296C313.639 381.6 313.175 379.536 313.175 377.104V361.696H317.495V376.528C317.495 379.12 318.151 381.12 319.463 382.528C320.775 383.904 322.567 384.592 324.839 384.592C327.175 384.592 329.015 383.872 330.359 382.432C331.703 380.992 332.375 378.896 332.375 376.144V361.696H336.743ZM348.486 352.48V388H344.118V352.48H348.486ZM354.298 374.752C354.298 372.064 354.842 369.712 355.93 367.696C357.018 365.648 358.506 364.064 360.394 362.944C362.314 361.824 364.442 361.264 366.778 361.264C369.082 361.264 371.082 361.76 372.778 362.752C374.474 363.744 375.738 364.992 376.57 366.496V361.696H380.986V388H376.57V383.104C375.706 384.64 374.41 385.92 372.682 386.944C370.986 387.936 369.002 388.432 366.73 388.432C364.394 388.432 362.282 387.856 360.394 386.704C358.506 385.552 357.018 383.936 355.93 381.856C354.842 379.776 354.298 377.408 354.298 374.752ZM376.57 374.8C376.57 372.816 376.17 371.088 375.37 369.616C374.57 368.144 373.482 367.024 372.106 366.256C370.762 365.456 369.274 365.056 367.642 365.056C366.01 365.056 364.522 365.44 363.178 366.208C361.834 366.976 360.762 368.096 359.962 369.568C359.162 371.04 358.762 372.768 358.762 374.752C358.762 376.768 359.162 378.528 359.962 380.032C360.762 381.504 361.834 382.64 363.178 383.44C364.522 384.208 366.01 384.592 367.642 384.592C369.274 384.592 370.762 384.208 372.106 383.44C373.482 382.64 374.57 381.504 375.37 380.032C376.17 378.528 376.57 376.784 376.57 374.8ZM393.696 365.296V380.8C393.696 382.08 393.968 382.992 394.512 383.536C395.056 384.048 396 384.304 397.344 384.304H400.56V388H396.624C394.192 388 392.368 387.44 391.152 386.32C389.936 385.2 389.328 383.36 389.328 380.8V365.296H385.92V361.696H389.328V355.072H393.696V361.696H400.56V365.296H393.696ZM417.324 388.432C414.86 388.432 412.62 387.872 410.604 386.752C408.62 385.632 407.052 384.048 405.9 382C404.78 379.92 404.22 377.52 404.22 374.8C404.22 372.112 404.796 369.744 405.948 367.696C407.132 365.616 408.732 364.032 410.748 362.944C412.764 361.824 415.02 361.264 417.516 361.264C420.012 361.264 422.268 361.824 424.284 362.944C426.3 364.032 427.884 365.6 429.036 367.648C430.22 369.696 430.812 372.08 430.812 374.8C430.812 377.52 430.204 379.92 428.988 382C427.804 384.048 426.188 385.632 424.14 386.752C422.092 387.872 419.82 388.432 417.324 388.432ZM417.324 384.592C418.892 384.592 420.364 384.224 421.74 383.488C423.116 382.752 424.22 381.648 425.052 380.176C425.916 378.704 426.348 376.912 426.348 374.8C426.348 372.688 425.932 370.896 425.1 369.424C424.268 367.952 423.18 366.864 421.836 366.16C420.492 365.424 419.036 365.056 417.468 365.056C415.868 365.056 414.396 365.424 413.052 366.16C411.74 366.864 410.684 367.952 409.884 369.424C409.084 370.896 408.684 372.688 408.684 374.8C408.684 376.944 409.068 378.752 409.836 380.224C410.636 381.696 411.692 382.8 413.004 383.536C414.316 384.24 415.756 384.592 417.324 384.592ZM440.923 365.968C441.691 364.464 442.779 363.296 444.187 362.464C445.627 361.632 447.371 361.216 449.419 361.216V365.728H448.267C443.371 365.728 440.923 368.384 440.923 373.696V388H436.555V361.696H440.923V365.968Z" fill="#D9D9D9"/>
<defs>
<linearGradient id="paint0_linear_338_139" x1="325" y1="0" x2="325" y2="220" gradientUnits="userSpaceOnUse">
<stop stop-color="#FB7807"/>
<stop offset="1" stop-color="#FC9C10"/>
</linearGradient>
<linearGradient id="paint1_linear_338_139" x1="324.997" y1="48.8906" x2="324.997" y2="171.112" gradientUnits="userSpaceOnUse">
<stop stop-color="#FC9C10"/>
<stop offset="1" stop-color="#FB7807"/>
</linearGradient>
</defs>
</svg>
