<svg width="1340" height="300" viewBox="0 0 1340 300" fill="none" xmlns="http://www.w3.org/2000/svg">
<rect width="1340" height="300" rx="50" fill="#1C2025"/>
<rect x="1091" y="121" width="198" height="58" rx="29" stroke="#FFD000" stroke-width="2"/>
<path d="M1161.76 140.2H1166.36L1176.04 149.36L1166.36 158.56H1161.76L1171.44 149.36L1161.76 140.2ZM1183.32 140.2H1187.92L1197.6 149.36L1187.92 158.56H1183.32L1193 149.36L1183.32 140.2ZM1204.89 140.2H1209.49L1219.17 149.36L1209.49 158.56H1204.89L1214.57 149.36L1204.89 140.2Z" fill="#FFD000"/>
<path d="M324.44 129.3V134.88H313.34V171H306.5V134.88H295.34V129.3H324.44ZM353.687 149.58C355.927 149.98 357.827 151.16 359.387 153.12C360.947 155.08 361.727 157.3 361.727 159.78C361.727 161.9 361.167 163.82 360.047 165.54C358.967 167.22 357.387 168.56 355.307 169.56C353.227 170.52 350.807 171 348.047 171H331.367V129.3H347.267C350.107 129.3 352.547 129.78 354.587 130.74C356.627 131.7 358.167 133 359.207 134.64C360.247 136.24 360.767 138.04 360.767 140.04C360.767 142.44 360.127 144.44 358.847 146.04C357.567 147.64 355.847 148.82 353.687 149.58ZM338.207 146.82H346.667C348.907 146.82 350.647 146.32 351.887 145.32C353.167 144.28 353.807 142.8 353.807 140.88C353.807 139 353.167 137.54 351.887 136.5C350.647 135.42 348.907 134.88 346.667 134.88H338.207V146.82ZM347.447 165.42C349.767 165.42 351.587 164.86 352.907 163.74C354.227 162.62 354.887 161.06 354.887 159.06C354.887 157.02 354.187 155.4 352.787 154.2C351.387 153 349.527 152.4 347.207 152.4H338.207V165.42H347.447ZM366.88 150.06C366.88 145.98 367.82 142.32 369.7 139.08C371.62 135.84 374.2 133.32 377.44 131.52C380.72 129.68 384.3 128.76 388.18 128.76C392.62 128.76 396.56 129.86 400 132.06C403.48 134.22 406 137.3 407.56 141.3H399.34C398.26 139.1 396.76 137.46 394.84 136.38C392.92 135.3 390.7 134.76 388.18 134.76C385.42 134.76 382.96 135.38 380.8 136.62C378.64 137.86 376.94 139.64 375.7 141.96C374.5 144.28 373.9 146.98 373.9 150.06C373.9 153.14 374.5 155.84 375.7 158.16C376.94 160.48 378.64 162.28 380.8 163.56C382.96 164.8 385.42 165.42 388.18 165.42C390.7 165.42 392.92 164.88 394.84 163.8C396.76 162.72 398.26 161.08 399.34 158.88H407.56C406 162.88 403.48 165.96 400 168.12C396.56 170.28 392.62 171.36 388.18 171.36C384.26 171.36 380.68 170.46 377.44 168.66C374.2 166.82 371.62 164.28 369.7 161.04C367.82 157.8 366.88 154.14 366.88 150.06ZM452.812 171L443.212 154.32H437.992V171H431.152V129.3H445.552C448.752 129.3 451.452 129.86 453.652 130.98C455.892 132.1 457.552 133.6 458.632 135.48C459.752 137.36 460.312 139.46 460.312 141.78C460.312 144.5 459.512 146.98 457.912 149.22C456.352 151.42 453.932 152.92 450.652 153.72L460.972 171H452.812ZM437.992 148.86H445.552C448.112 148.86 450.032 148.22 451.312 146.94C452.632 145.66 453.292 143.94 453.292 141.78C453.292 139.62 452.652 137.94 451.372 136.74C450.092 135.5 448.152 134.88 445.552 134.88H437.992V148.86ZM491.383 149.58C493.623 149.98 495.523 151.16 497.083 153.12C498.643 155.08 499.423 157.3 499.423 159.78C499.423 161.9 498.863 163.82 497.743 165.54C496.663 167.22 495.083 168.56 493.003 169.56C490.923 170.52 488.503 171 485.743 171H469.063V129.3H484.963C487.803 129.3 490.243 129.78 492.283 130.74C494.323 131.7 495.863 133 496.903 134.64C497.943 136.24 498.462 138.04 498.462 140.04C498.462 142.44 497.823 144.44 496.543 146.04C495.263 147.64 493.543 148.82 491.383 149.58ZM475.903 146.82H484.363C486.603 146.82 488.343 146.32 489.583 145.32C490.863 144.28 491.503 142.8 491.503 140.88C491.503 139 490.863 137.54 489.583 136.5C488.343 135.42 486.603 134.88 484.363 134.88H475.903V146.82ZM485.143 165.42C487.463 165.42 489.283 164.86 490.603 163.74C491.923 162.62 492.583 161.06 492.583 159.06C492.583 157.02 491.883 155.4 490.483 154.2C489.083 153 487.223 152.4 484.903 152.4H475.903V165.42H485.143ZM525.995 150.18L538.955 171H531.275L521.855 155.88L513.035 171H505.415L518.375 150.18L505.355 129.3H513.035L522.515 144.54L531.395 129.3H539.015L525.995 150.18ZM559.771 150.06C559.771 145.98 560.711 142.32 562.591 139.08C564.511 135.84 567.091 133.32 570.331 131.52C573.611 129.68 577.191 128.76 581.071 128.76C585.511 128.76 589.451 129.86 592.891 132.06C596.371 134.22 598.891 137.3 600.451 141.3H592.231C591.151 139.1 589.651 137.46 587.731 136.38C585.811 135.3 583.591 134.76 581.071 134.76C578.311 134.76 575.851 135.38 573.691 136.62C571.531 137.86 569.831 139.64 568.591 141.96C567.391 144.28 566.791 146.98 566.791 150.06C566.791 153.14 567.391 155.84 568.591 158.16C569.831 160.48 571.531 162.28 573.691 163.56C575.851 164.8 578.311 165.42 581.071 165.42C583.591 165.42 585.811 164.88 587.731 163.8C589.651 162.72 591.151 161.08 592.231 158.88H600.451C598.891 162.88 596.371 165.96 592.891 168.12C589.451 170.28 585.511 171.36 581.071 171.36C577.151 171.36 573.571 170.46 570.331 168.66C567.091 166.82 564.511 164.28 562.591 161.04C560.711 157.8 559.771 154.14 559.771 150.06ZM622.797 171.54C619.677 171.54 616.857 170.84 614.337 169.44C611.817 168 609.837 166 608.397 163.44C606.957 160.84 606.237 157.84 606.237 154.44C606.237 151.08 606.977 148.1 608.457 145.5C609.937 142.9 611.957 140.9 614.517 139.5C617.077 138.1 619.937 137.4 623.097 137.4C626.257 137.4 629.117 138.1 631.677 139.5C634.237 140.9 636.257 142.9 637.737 145.5C639.217 148.1 639.957 151.08 639.957 154.44C639.957 157.8 639.197 160.78 637.677 163.38C636.157 165.98 634.077 168 631.437 169.44C628.837 170.84 625.957 171.54 622.797 171.54ZM622.797 165.6C624.557 165.6 626.197 165.18 627.717 164.34C629.277 163.5 630.537 162.24 631.497 160.56C632.457 158.88 632.937 156.84 632.937 154.44C632.937 152.04 632.477 150.02 631.557 148.38C630.637 146.7 629.417 145.44 627.897 144.6C626.377 143.76 624.737 143.34 622.977 143.34C621.217 143.34 619.577 143.76 618.057 144.6C616.577 145.44 615.397 146.7 614.517 148.38C613.637 150.02 613.197 152.04 613.197 154.44C613.197 158 614.097 160.76 615.897 162.72C617.737 164.64 620.037 165.6 622.797 165.6ZM676.659 137.94V171H669.819V167.1C668.739 168.46 667.319 169.54 665.559 170.34C663.839 171.1 661.999 171.48 660.039 171.48C657.439 171.48 655.099 170.94 653.019 169.86C650.979 168.78 649.359 167.18 648.159 165.06C646.999 162.94 646.419 160.38 646.419 157.38V137.94H653.199V156.36C653.199 159.32 653.939 161.6 655.419 163.2C656.899 164.76 658.919 165.54 661.479 165.54C664.039 165.54 666.059 164.76 667.539 163.2C669.059 161.6 669.819 159.32 669.819 156.36V137.94H676.659ZM702.364 137.4C704.964 137.4 707.284 137.94 709.324 139.02C711.404 140.1 713.024 141.7 714.184 143.82C715.344 145.94 715.924 148.5 715.924 151.5V171H709.144V152.52C709.144 149.56 708.404 147.3 706.924 145.74C705.444 144.14 703.424 143.34 700.864 143.34C698.304 143.34 696.264 144.14 694.744 145.74C693.264 147.3 692.524 149.56 692.524 152.52V171H685.684V137.94H692.524V141.72C693.644 140.36 695.064 139.3 696.784 138.54C698.544 137.78 700.404 137.4 702.364 137.4ZM732.628 143.52V161.82C732.628 163.06 732.908 163.96 733.468 164.52C734.068 165.04 735.068 165.3 736.468 165.3H740.668V171H735.268C732.188 171 729.828 170.28 728.188 168.84C726.548 167.4 725.728 165.06 725.728 161.82V143.52H721.828V137.94H725.728V129.72H732.628V137.94H740.668V143.52H732.628ZM777.273 153.66C777.273 154.9 777.193 156.02 777.033 157.02H751.773C751.973 159.66 752.953 161.78 754.713 163.38C756.473 164.98 758.633 165.78 761.193 165.78C764.873 165.78 767.473 164.24 768.993 161.16H776.373C775.373 164.2 773.553 166.7 770.913 168.66C768.313 170.58 765.073 171.54 761.193 171.54C758.033 171.54 755.193 170.84 752.673 169.44C750.193 168 748.233 166 746.793 163.44C745.393 160.84 744.693 157.84 744.693 154.44C744.693 151.04 745.373 148.06 746.733 145.5C748.133 142.9 750.073 140.9 752.553 139.5C755.073 138.1 757.953 137.4 761.193 137.4C764.313 137.4 767.093 138.08 769.533 139.44C771.973 140.8 773.873 142.72 775.233 145.2C776.593 147.64 777.273 150.46 777.273 153.66ZM770.133 151.5C770.093 148.98 769.193 146.96 767.433 145.44C765.673 143.92 763.493 143.16 760.893 143.16C758.533 143.16 756.513 143.92 754.833 145.44C753.153 146.92 752.153 148.94 751.833 151.5H770.133ZM790.844 142.74C791.844 141.06 793.164 139.76 794.804 138.84C796.484 137.88 798.464 137.4 800.744 137.4V144.48H799.004C796.324 144.48 794.284 145.16 792.884 146.52C791.524 147.88 790.844 150.24 790.844 153.6V171H784.004V137.94H790.844V142.74Z" fill="white"/>
<path d="M150 50L236.603 100V200L150 250L63.3975 200V100L150 50Z" fill="#1C2025"/>
<path d="M231.603 102.886V197.113L150 244.226L68.3975 197.113V102.886L150 55.7734L231.603 102.886Z" stroke="url(#paint0_linear_344_590)" stroke-width="10"/>
<path d="M202.096 120.05V180.149L150.048 210.199L98 180.149V120.05L150.048 90L202.096 120.05Z" fill="url(#paint1_linear_344_590)"/>
<g filter="url(#filter0_d_344_590)">
<path d="M111.792 139.26V134.288H134.32V139.26H126.136V165H119.976V139.26H111.792ZM138.902 151.888V146.696H157.558V151.888H138.902ZM180.747 143.836C180.747 141.108 179.207 139.392 175.775 139.392H170.627V148.412H175.775C179.207 148.412 180.747 146.608 180.747 143.836ZM164.467 134.288H175.995C183.387 134.288 187.083 138.556 187.083 143.704C187.083 147.444 185.015 151.228 180.087 152.548L187.435 165H180.307L173.531 153.032H170.627V165H164.467V134.288Z" fill="white"/>
</g>
<defs>
<filter id="filter0_d_344_590" x="107.792" y="134.287" width="83.6426" height="38.7129" filterUnits="userSpaceOnUse" color-interpolation-filters="sRGB">
<feFlood flood-opacity="0" result="BackgroundImageFix"/>
<feColorMatrix in="SourceAlpha" type="matrix" values="0 0 0 0 0 0 0 0 0 0 0 0 0 0 0 0 0 0 127 0" result="hardAlpha"/>
<feOffset dy="4"/>
<feGaussianBlur stdDeviation="2"/>
<feComposite in2="hardAlpha" operator="out"/>
<feColorMatrix type="matrix" values="0 0 0 0 0 0 0 0 0 0 0 0 0 0 0 0 0 0 0.25 0"/>
<feBlend mode="normal" in2="BackgroundImageFix" result="effect1_dropShadow_344_590"/>
<feBlend mode="normal" in="SourceGraphic" in2="effect1_dropShadow_344_590" result="shape"/>
</filter>
<linearGradient id="paint0_linear_344_590" x1="150" y1="50" x2="150" y2="250" gradientUnits="userSpaceOnUse">
<stop stop-color="#FB7807"/>
<stop offset="1" stop-color="#FC9C10"/>
</linearGradient>
<linearGradient id="paint1_linear_344_590" x1="150.048" y1="90" x2="150.048" y2="210.198" gradientUnits="userSpaceOnUse">
<stop stop-color="#FC9C10"/>
<stop offset="1" stop-color="#FB7807"/>
</linearGradient>
</defs>
</svg>
